<svg width="20" height="18" viewBox="0 0 20 18" fill="none" xmlns="http://www.w3.org/2000/svg">
    <path fill-rule="evenodd" clip-rule="evenodd"
        d="M1.55117 1.54568C3.62372 -0.515226 6.97628 -0.515226 9.04883 1.54568L9.05213 1.54896L9.9918 2.49504L10.9397 1.54717L10.9412 1.54568C13.013 -0.514493 16.3539 -0.515226 18.4266 1.54348C19.4879 2.5826 20 3.93884 20 5.3075C20 6.65607 19.4881 8.02003 18.4503 9.05783L10.598 16.9101C10.56 16.9481 10.5079 17.0003 10.416 17.0615C10.1641 17.2295 9.8359 17.2295 9.58397 17.0615C9.49212 17.0003 9.43997 16.9481 9.40195 16.9101L1.54967 9.05783C0.512465 8.02062 0 6.66694 0 5.3075C0 3.9498 0.511284 2.58556 1.54967 1.54717L1.55117 1.54568Z"
        fill="#F04D4D" />
</svg>