<svg width="20" height="18" viewBox="0 0 20 18" fill="none" xmlns="http://www.w3.org/2000/svg">
    <path fill-rule="evenodd" clip-rule="evenodd"
        d="M2.60958 2.60858C1.86847 3.3501 1.5 4.32553 1.5 5.3075C1.5 6.28805 1.86754 7.25437 2.61033 7.99717L10 15.3868L17.3897 7.99717C18.1319 7.25497 18.5 6.27892 18.5 5.3075C18.5 4.31711 18.1328 3.35429 17.3756 2.61369L17.3711 2.60934C15.8839 1.13047 13.487 1.13023 11.9995 2.60864L10.5203 4.08783C10.3794 4.22879 10.1881 4.30783 9.98873 4.30749C9.78937 4.30716 9.59836 4.22747 9.45787 4.08603L7.99116 2.60932L7.98958 2.60775C6.50225 1.13047 4.09656 1.13075 2.60958 2.60858ZM1.55117 1.54568C3.62372 -0.515226 6.97628 -0.515226 9.04883 1.54568L9.05213 1.54896L9.9918 2.49504L10.9397 1.54717L10.9412 1.54568C13.013 -0.514493 16.3539 -0.515226 18.4266 1.54348C19.4879 2.5826 20 3.93884 20 5.3075C20 6.65607 19.4881 8.02003 18.4503 9.05783L10.598 16.9101C10.56 16.9481 10.5079 17.0003 10.416 17.0615C10.1641 17.2295 9.8359 17.2295 9.58397 17.0615C9.49212 17.0003 9.43997 16.9481 9.40195 16.9101L1.54967 9.05783C0.512465 8.02062 0 6.66694 0 5.3075C0 3.9498 0.511284 2.58556 1.54967 1.54717L1.55117 1.54568Z"
        fill="#161721" />
</svg>